<svg xmlns="http://www.w3.org/2000/svg" width="48" height="48" fill="none" viewBox="0 0 93 93"><rect width="91.562" height="91.562" x="1.139" y="1" fill="#069" rx="15"/><path fill="#fff" d="M37.1339 63.4304V40.9068H29.6473V63.4304H37.1346H37.1339ZM33.3922 37.8321C36.0023 37.8321 37.6273 36.1025 37.6273 33.9411C37.5785 31.7304 36.0023 30.0491 33.4418 30.0491C30.8795 30.0491 29.2061 31.7304 29.2061 33.9409C29.2061 36.1023 30.8305 37.8319 33.3431 37.8319H33.3916L33.3922 37.8321ZM41.2777 63.4304H48.7637V50.8535C48.7637 50.1813 48.8125 49.5072 49.0103 49.0271C49.5513 47.6815 50.7831 46.2887 52.8517 46.2887C55.5599 46.2887 56.644 48.354 56.644 51.3822V63.4304H64.1297V50.516C64.1297 43.598 60.4369 40.3787 55.5115 40.3787C51.4733 40.3787 49.6998 42.6357 48.7144 44.173H48.7643V40.9075H41.2781C41.3759 43.0205 41.2775 63.4312 41.2775 63.4312L41.2777 63.4304Z"/></svg>