<svg xmlns="http://www.w3.org/2000/svg" width="48" height="48" fill="none" viewBox="0 0 93 93"><rect width="91.562" height="91.562" x=".139" y="1" fill="url(#paint0_radial_7092_54410)" rx="15"/><path fill="#fff" fill-rule="evenodd" d="M46.4114 21C32.0561 21 20.9307 31.317 20.9307 45.2508C20.9307 52.5396 23.9761 58.8375 28.9338 63.1887C29.3491 63.5559 29.6003 64.0639 29.6208 64.6122L29.7592 69.059C29.8054 70.4775 31.2973 71.398 32.62 70.8296L37.6752 68.6414C38.1058 68.4553 38.5826 68.4201 39.0338 68.5408C41.3563 69.1696 43.8326 69.5016 46.4114 69.5016C60.7668 69.5016 71.8922 59.1846 71.8922 45.2508C71.8922 31.317 60.7668 21 46.4114 21ZM61.7102 39.6572L54.2249 51.3072C53.0354 53.1584 50.4822 53.6211 48.698 52.3082L42.7457 47.9269C42.1971 47.5245 41.4486 47.5295 40.9051 47.9319L32.8661 53.9179C31.7946 54.7177 30.3898 53.4551 31.1127 52.3384L38.598 40.6884C39.7875 38.8372 42.3407 38.3745 44.1248 39.6874L50.0772 44.0687C50.6258 44.4711 51.3743 44.4661 51.9177 44.0637L59.9567 38.0777C61.0283 37.2779 62.433 38.5405 61.7102 39.6572Z" clip-rule="evenodd"/><defs><radialGradient id="paint0_radial_7092_54410" cx="0" cy="0" r="1" gradientTransform="translate(15.4753 92.5593) scale(100.718 100.715)" gradientUnits="userSpaceOnUse"><stop stop-color="#09F"/><stop offset=".6" stop-color="#A033FF"/><stop offset=".9" stop-color="#FF5280"/><stop offset="1" stop-color="#FF7061"/></radialGradient></defs></svg>