<svg xmlns="http://www.w3.org/2000/svg" width="48" height="48" viewBox="0 0 93 92" fill="none">
      <rect x="1.13867" width="91.5618" height="91.5618" rx="15" fill="#FF0000"/>
      <path d="M44.2808 23.0437C36.8492 23.893 29.4439 30.0479 29.1382 38.84C28.9461 44.2083 30.435 48.2356 35.4258 49.3664C37.5915 45.4553 34.7272 44.5927 34.2818 41.7633C32.4523 30.1686 47.346 22.2615 55.14 30.3563C60.5324 35.9615 56.9826 53.206 48.2848 51.4136C39.9537 49.7017 52.3629 35.9749 45.713 33.2796C40.3074 31.0894 37.4343 39.9798 39.9974 44.396C38.4953 51.9902 35.2599 59.1464 36.5698 68.6715C40.8183 65.5158 42.2504 59.4727 43.425 53.1702C45.5601 54.4978 46.6998 55.8789 49.4244 56.0935C59.4714 56.8891 65.0822 45.8263 63.7112 35.6218C62.4929 26.5749 53.6729 21.971 44.2808 23.0437Z" fill="white"/>
      </svg>