<svg xmlns="http://www.w3.org/2000/svg" width="48" height="48" fill="none" viewBox="0 0 92 92"><rect width="91.562" height="91.562" x=".139" fill="#00B7F0" rx="15"/><path fill="#fff" fill-rule="evenodd" d="M21.1081 36.9185C21.2825 39.0304 21.9143 41.0712 22.951 42.9027C22.7897 44.0027 22.7082 45.1152 22.7082 46.2319C22.7082 49.2582 23.3069 52.2549 24.4702 55.0508C25.6334 57.8468 27.3385 60.3872 29.4879 62.5271C31.6373 64.6671 34.1891 66.3646 36.9975 67.5227C39.8058 68.6808 42.8158 69.2769 45.8556 69.2769C46.7797 69.2769 47.7011 69.2218 48.615 69.1125C49.0204 69.3507 49.4381 69.5697 49.8667 69.7685C50.3247 69.9811 50.7948 70.1704 51.2749 70.3352L51.2815 70.3337C52.7961 70.8519 54.3999 71.1235 56.0319 71.1235C57.9518 71.1235 59.8528 70.7471 61.6266 70.0156C63.4003 69.2841 65.0119 68.212 66.3695 66.8605C67.727 65.5089 68.8039 63.9044 69.5386 62.1385C70.2733 60.3726 70.6515 58.4799 70.6515 56.5685C70.6515 56.1608 70.6343 55.7539 70.6001 55.349C70.4306 53.2486 69.8087 51.2165 68.7847 49.3893C68.9297 48.3453 69.003 47.2904 69.003 46.2319C69.003 43.2056 68.4042 40.2089 67.241 37.4129C66.0777 34.617 64.3727 32.0765 62.2233 29.9366C60.0738 27.7967 57.5221 26.0992 54.7137 24.9411C51.9053 23.7829 48.8953 23.1869 45.8556 23.1869C45.0301 23.1869 44.2068 23.2308 43.3891 23.3181C42.9962 23.0741 42.5911 22.8484 42.1748 22.6419L42.1735 22.6421C41.7305 22.4224 41.2754 22.2247 40.81 22.0502L40.8045 22.0513C40.531 21.9491 40.2543 21.855 39.9748 21.7693C39.1664 21.5204 38.3345 21.3411 37.4879 21.2352L37.4849 21.2362C36.8858 21.1615 36.2795 21.1235 35.6693 21.1235C31.7932 21.1235 28.076 22.6565 25.3352 25.3851C22.5944 28.1138 21.0547 31.8146 21.0547 35.6735C21.0547 36.0906 21.0725 36.5062 21.1081 36.9185ZM37.0659 43.0286C37.6308 43.9944 38.4114 44.8169 39.3468 45.4319C40.5861 46.2419 41.9036 46.9259 43.2795 47.4736C44.8179 48.1158 46.0114 48.6602 46.8601 49.1069C47.5778 49.4595 48.2292 49.9331 48.7856 50.5069C49.2067 50.9532 49.4407 51.5436 49.4397 52.1569C49.4578 52.5894 49.3725 53.02 49.1908 53.413C49.0092 53.806 48.7364 54.1501 48.3952 54.4169C47.4835 55.0297 46.3928 55.3201 45.2967 55.2419C44.6769 55.2483 44.0584 55.1846 43.453 55.0519C42.962 54.9442 42.4818 54.7925 42.0181 54.5986C41.6121 54.423 41.0576 54.1597 40.3546 53.8086C39.7892 53.5073 39.1599 53.3456 38.5192 53.3369C37.9442 53.3134 37.3821 53.5115 36.9491 53.8902C36.7426 54.0866 36.5812 54.3254 36.476 54.5901C36.3709 54.8548 36.3245 55.1392 36.3401 55.4236C36.3272 55.9627 36.49 56.4915 36.8039 56.9302C37.1821 57.409 37.6711 57.7888 38.2289 58.0369C40.4105 58.9814 42.7753 59.4283 45.1516 59.3452C46.8808 59.38 48.6018 59.0998 50.2305 58.5186C51.5819 58.0393 52.7587 57.1668 53.6093 56.0136C54.4446 54.7955 54.8679 53.3425 54.8173 51.8669C54.8497 50.6618 54.5477 49.4712 53.9447 48.4269C53.3322 47.4333 52.5071 46.5875 51.5286 45.9502C50.2897 45.1519 48.9753 44.477 47.6043 43.9352C47.4577 43.8635 47.306 43.8028 47.1504 43.7536C45.7455 43.1736 44.6888 42.708 43.9803 42.3569C43.3477 42.0607 42.7748 41.6511 42.29 41.1486C41.8821 40.7208 41.6571 40.151 41.6627 39.5602C41.6431 39.1102 41.7449 38.6633 41.9574 38.266C42.1699 37.8688 42.4853 37.5358 42.8707 37.3019C43.7839 36.7581 44.8349 36.4895 45.8974 36.5286C46.7125 36.52 47.5251 36.6209 48.3134 36.8286C49.1697 37.0752 50.0077 37.3815 50.8212 37.7452C51.1512 37.8982 51.5102 37.9789 51.874 37.9819C52.1384 37.9889 52.4014 37.94 52.6455 37.8383C52.8896 37.7366 53.1095 37.5845 53.2906 37.3919C53.482 37.1829 53.6303 36.9383 53.7271 36.6721C53.8238 36.4059 53.8672 36.1232 53.8546 35.8402C53.8631 35.2956 53.6727 34.7665 53.319 34.3519C52.8388 33.848 52.2433 33.4683 51.5837 33.2452C50.8653 32.9817 50.1225 32.7902 49.3662 32.6736C48.3096 32.5004 47.24 32.4185 46.1694 32.4286C44.5329 32.4189 42.9071 32.6924 41.364 33.2369C39.9453 33.7153 38.6787 34.5607 37.6933 35.6869C36.745 36.8084 36.2437 38.2395 36.285 39.7069C36.2514 40.8631 36.5205 42.0081 37.0659 43.0286Z" clip-rule="evenodd"/></svg>