<svg xmlns="http://www.w3.org/2000/svg" width="48" height="48" viewBox="0 0 92 93" fill="none">
      <rect x="0.138672" y="1" width="91.5618" height="91.5618" rx="15" fill="#34AADF"/>
      <path d="M25.0881 43.5652C25.0881 43.5652 43.716 35.7194 50.1765 32.9567C52.6532 31.8518 61.0518 28.3155 61.0518 28.3155C61.0518 28.3155 64.9282 26.7685 64.6052 30.5256C64.4974 32.0728 63.6361 37.4874 62.7747 43.3442C61.4825 51.6322 60.0827 60.6935 60.0827 60.6935C60.0827 60.6935 59.8674 63.2352 58.0369 63.6772C56.2065 64.1192 53.1914 62.1302 52.6532 61.6881C52.2223 61.3566 44.5774 56.3838 41.7778 53.9527C41.0241 53.2897 40.1627 51.9637 41.8854 50.4166C45.7618 46.7699 50.3919 42.2392 53.1914 39.3661C54.4836 38.04 55.7757 34.9459 50.3919 38.703C42.7469 44.1178 35.2096 49.201 35.2096 49.201C35.2096 49.201 33.4868 50.306 30.2565 49.3115C27.0261 48.317 23.2575 46.9909 23.2575 46.9909C23.2575 46.9909 20.6734 45.3334 25.0881 43.5652Z" fill="white"/>
      </svg>