<svg xmlns="http://www.w3.org/2000/svg" width="48" height="48" fill="none" viewBox="0 0 92 92"><rect width="91.562" height="91.562" x=".139" fill="#000" rx="15"/><path fill="#EE1D52" fill-rule="evenodd" d="M55.6721 39.4285C58.7387 41.6085 62.4112 42.7733 66.1737 42.7592V35.3024C65.434 35.3045 64.6963 35.2253 63.9739 35.0663V41.0068C60.203 41.0135 56.5252 39.8354 53.4599 37.6389V52.9749C53.4507 55.4914 52.7606 57.9585 51.4628 60.1146C50.165 62.2706 48.3079 64.0353 46.0885 65.2215C43.8691 66.4076 41.37 66.9711 38.8563 66.852C36.3426 66.733 33.9079 65.9359 31.8105 64.5453C33.7506 66.5082 36.2295 67.8513 38.9333 68.4044C41.6372 68.9576 44.4444 68.6959 46.9994 67.6526C49.5545 66.6093 51.7425 64.8312 53.2864 62.5436C54.8302 60.256 55.6605 57.5616 55.6721 54.8018V39.4285ZM58.3938 31.8226C56.8343 30.1323 55.8775 27.9739 55.6721 25.6832V24.7139H53.5842C53.8423 26.1699 54.4039 27.5553 55.2326 28.78C56.0612 30.0048 57.1383 31.0414 58.3938 31.8226ZM36.645 58.642C35.9213 57.6957 35.4779 56.5653 35.365 55.3793C35.2522 54.1934 35.4746 52.9996 36.0068 51.9338C36.5391 50.8681 37.3598 49.9731 38.3757 49.3508C39.3915 48.7285 40.5616 48.4039 41.7529 48.4139C42.4106 48.4137 43.0644 48.5143 43.6916 48.7121V41.0068C42.9584 40.9097 42.2189 40.8682 41.4794 40.8826V46.8728C39.9522 46.39 38.2992 46.4998 36.8492 47.1803C35.3992 47.8608 34.2585 49.0621 33.6539 50.5454C33.0494 52.0286 33.0252 53.6851 33.5864 55.1853C34.1475 56.6855 35.2527 57.9196 36.6823 58.642H36.645Z" clip-rule="evenodd"/><path fill="#fff" fill-rule="evenodd" d="M53.4589 37.5892C56.5241 39.7857 60.2019 40.9638 63.9729 40.9571V35.0166C61.8243 34.5623 59.8726 33.4452 58.3927 31.8226C57.1372 31.0414 56.0601 30.0048 55.2315 28.78C54.4029 27.5553 53.8412 26.1699 53.5831 24.7139H48.09V54.8018C48.0849 56.1336 47.6629 57.4304 46.8831 58.51C46.1034 59.5897 45.0051 60.3981 43.7425 60.8217C42.4798 61.2453 41.1162 61.2629 39.8431 60.872C38.57 60.4811 37.4512 59.7012 36.6439 58.642C35.3645 57.9965 34.3399 56.9387 33.7354 55.6394C33.1309 54.3401 32.9818 52.875 33.3121 51.4805C33.6424 50.0861 34.4329 48.8435 35.556 47.9535C36.6791 47.0634 38.0693 46.5776 39.5023 46.5745C40.1599 46.5766 40.8134 46.6772 41.4411 46.8728V40.8826C38.7288 40.9477 36.0946 41.8033 33.8617 43.3444C31.6289 44.8855 29.8946 47.0451 28.8717 49.5579C27.8489 52.0708 27.5821 54.8276 28.1039 57.49C28.6258 60.1524 29.9137 62.6045 31.8095 64.5453C33.9073 65.9459 36.3458 66.7512 38.8651 66.8755C41.3845 66.9997 43.8904 66.4383 46.1158 65.2509C48.3413 64.0636 50.2031 62.2948 51.5027 60.133C52.8024 57.9712 53.4913 55.4973 53.4962 52.9749L53.4589 37.5892Z" clip-rule="evenodd"/><path fill="#69C9D0" fill-rule="evenodd" d="M63.9736 35.0161V33.4129C62.0005 33.4213 60.0655 32.8696 58.3934 31.8221C59.8695 33.4493 61.8229 34.5674 63.9736 35.0161ZM53.5838 24.7134C53.5838 24.4275 53.4968 24.1292 53.4596 23.8434V22.874H45.8785V52.9744C45.872 54.6598 45.197 56.2738 44.0017 57.4621C42.8064 58.6504 41.1885 59.3159 39.503 59.3126C38.5106 59.3176 37.5311 59.0876 36.6446 58.6415C37.4519 59.7007 38.5707 60.4805 39.8438 60.8715C41.1169 61.2624 42.4805 61.2448 43.7432 60.8212C45.0058 60.3976 46.1041 59.5892 46.8838 58.5095C47.6636 57.4298 48.0856 56.1331 48.0907 54.8013V24.7134H53.5838ZM41.4418 40.8696V39.167C38.3222 38.7432 35.1511 39.3885 32.4453 40.9977C29.7394 42.6069 27.6584 45.0851 26.5413 48.0284C25.4242 50.9718 25.337 54.2067 26.2938 57.206C27.2506 60.2053 29.195 62.792 31.8102 64.5448C29.9287 62.5995 28.6545 60.1484 28.1433 57.4908C27.6321 54.8333 27.906 52.0844 28.9315 49.5799C29.957 47.0755 31.6897 44.924 33.918 43.3882C36.1463 41.8524 38.7736 40.9988 41.4791 40.9318L41.4418 40.8696Z" clip-rule="evenodd"/></svg>