<svg xmlns="http://www.w3.org/2000/svg" width="48" height="48" viewBox="0 0 93 93" fill="none">
      <rect x="1.13867" y="1" width="91.5618" height="91.5618" rx="15" fill="#FF0000"/>
      <path fill-rule="evenodd" clip-rule="evenodd" d="M67.5615 29.2428C69.8115 29.8504 71.58 31.6234 72.1778 33.8708C73.2654 37.9495 73.2654 46.4647 73.2654 46.4647C73.2654 46.4647 73.2654 54.98 72.1778 59.0586C71.5717 61.3144 69.8032 63.0873 67.5615 63.6866C63.4932 64.7771 47.1703 64.7771 47.1703 64.7771C47.1703 64.7771 30.8557 64.7771 26.7791 63.6866C24.5291 63.079 22.7606 61.306 22.1628 59.0586C21.0752 54.98 21.0752 46.4647 21.0752 46.4647C21.0752 46.4647 21.0752 37.9495 22.1628 33.8708C22.7689 31.615 24.5374 29.8421 26.7791 29.2428C30.8557 28.1523 47.1703 28.1523 47.1703 28.1523C47.1703 28.1523 63.4932 28.1523 67.5615 29.2428ZM55.5142 46.4647L41.9561 54.314V38.6154L55.5142 46.4647Z" fill="white"/>
      </svg>